# xmcd CD Database Entry
#
# Track frame offsets:
# 150
# 3877
# 9220
# 26375
# 41445
# 43202
# 58395
# 60667
# 65952
# 71605
# 72072
# 90347
# 92407
# 123092
# 125392
# 136962
# 139460
# 150192
# 172812
#
# Disc length: 2311 seconds
#
# Revision: 4
# Processed by: cddbd v1.4PL0 Copyright (c) Steve Scherf et al.
# Submitted via: tcd 2.0b
#
DISCID=f2090513
DTITLE=Elvis Gratton - Le disque à écouter avec ta tête, 'sti!
DYEAR=1900
DGENRE=
TTITLE0=Intro
TTITLE1=Ouverture
TTITLE2=Clone me tender
TTITLE3=The milk-shake song
TTITLE4=Bob vous parle (1)
TTITLE5=Think Big
TTITLE6=Bob vous parle (2)
TTITLE7=Salsa de l'échelle
TTITLE8=Fermeture
TTITLE9=Bob vous parle (3)
TTITLE10=Mes Rocheuses
TTITLE11=La marche de Bob et Méo
TTITLE12=Elvis is in the house
TTITLE13=Le pavillon du Bob
TTITLE14=Sexy Méo
TTITLE15=Bob vous parle (4)
TTITLE16=Bob save the queen
TTITLE17=Remix Think Big
TTITLE18=Bob et le mot de la fin
EXTD=
EXTT0=
EXTT1=
EXTT2=
EXTT3=
EXTT4=
EXTT5=
EXTT6=
EXTT7=
EXTT8=
EXTT9=
EXTT10=
EXTT11=
EXTT12=
EXTT13=
EXTT14=
EXTT15=
EXTT16=
EXTT17=
EXTT18=
PLAYORDER=
